# xmcd
#
# Track frame offsets: 
#        150
#        13953
#        29331
#        46170
#        60448
#        75859
#        89319
#        103724
#        116954
#        132503
#
# Disc length: 1929 seconds
#
# Revision: 0
# Processed by: cddbd v1.4PL0 Copyright (c) Steve Scherf et al.
# Submitted via: ExactAudioCopy v0.90b4
#
DISCID=7b07870a
DTITLE=Dean Tuftin - Not So Little Anymore
DYEAR=2002
DGENRE=Country
TTITLE0=I'm Not So Little Anymore
TTITLE1=Hangin' At The End Of My Rope
TTITLE2=You Can't
TTITLE3=Talk Is Cheap
TTITLE4=Lost In A Moment
TTITLE5=Dust Off Your Buckle
TTITLE6=Ramblin' Man
TTITLE7=If You'll Be Mine
TTITLE8=In Her Eyes
TTITLE9=Six Pack
EXTD=
EXTT0=
EXTT1=
EXTT2=
EXTT3=
EXTT4=
EXTT5=
EXTT6=
EXTT7=
EXTT8=
EXTT9=
PLAYORDER=
